<?xml version="1.0" standalone="no"?>
<!DOCTYPE svg PUBLIC "-//W3C//DTD SVG 20010904//EN"
 "http://www.w3.org/TR/2001/REC-SVG-20010904/DTD/svg10.dtd">
<svg version="1.0" xmlns="http://www.w3.org/2000/svg"
 width="640.000000pt" height="640.000000pt" viewBox="0 0 640.000000 640.000000"
 preserveAspectRatio="xMidYMid meet">
<metadata>
Created by potrace 1.16, written by Peter Selinger 2001-2019
</metadata>
<g transform="translate(0.000000,640.000000) scale(0.100000,-0.100000)"
fill="#000000" stroke="none">
<path d="M3025 4405 c-101 -18 -179 -43 -269 -83 l-78 -36 59 -16 c113 -31
179 -83 228 -180 20 -39 30 -48 67 -59 101 -30 200 -119 250 -227 36 -78 55
-82 110 -22 l38 41 0 -30 c0 -16 -11 -51 -25 -76 l-24 -47 42 -24 c60 -36 149
-56 244 -56 89 0 129 -12 136 -41 3 -11 -10 -50 -29 -88 -19 -38 -34 -78 -34
-88 0 -20 26 -47 73 -76 37 -24 36 -64 -3 -102 -16 -16 -30 -31 -30 -35 0 -3
14 -11 30 -17 33 -12 39 -42 19 -87 -15 -33 -6 -63 37 -126 73 -106 80 -165
24 -219 -30 -29 -52 -39 -177 -86 -121 -45 -204 -138 -239 -269 -17 -62 -30
-258 -20 -310 7 -36 8 -37 39 -31 344 74 660 323 824 650 196 389 155 889
-102 1250 -179 252 -442 423 -748 486 -109 22 -332 25 -442 4z"/>
<path d="M2010 4228 c0 -5 5 -18 10 -28 14 -27 77 -247 101 -354 25 -113 54
-308 73 -501 23 -220 64 -350 154 -482 54 -79 65 -87 117 -84 115 7 367 -47
445 -95 l25 -15 -30 6 c-196 42 -425 12 -585 -77 -141 -78 -292 -222 -395
-378 -50 -77 -52 -85 -27 -95 76 -30 197 -69 283 -91 149 -37 365 -44 501 -16
176 37 363 134 500 260 l61 57 -49 7 c-27 3 -126 7 -221 7 -192 1 -350 -16
-516 -55 -60 -14 -110 -24 -113 -21 -8 7 161 76 254 102 174 51 250 60 513 60
l246 0 -43 30 c-174 124 -356 339 -482 573 -66 122 -184 412 -167 412 2 0 43
-60 91 -132 117 -176 170 -249 284 -393 134 -170 358 -390 377 -372 3 4 -4 76
-16 161 -51 357 -163 663 -329 901 -129 184 -353 371 -563 468 -170 79 -499
175 -499 145z"/>
</g>
</svg>
